<svg xmlns="http://www.w3.org/2000/svg" width="1600" height="900" fill="none" style="color-scheme:light dark" viewBox="0 0 1600 900"><style>text{font-family:&quot;Space Grotesk&quot;,&quot;Sora&quot;,&quot;IBM Plex Sans&quot;,sans-serif}</style><defs><radialGradient id="glow" cx="0" cy="0" r="1" gradientTransform="rotate(45 -250.416 556.274)scale(420)" gradientUnits="userSpaceOnUse"><stop stop-color="#0EA5E9" stop-opacity=".35"/><stop offset="1" stop-color="#0EA5E9" stop-opacity="0"/></radialGradient><clipPath id="heroClip"><rect width="1600" height="900" rx="36"/></clipPath></defs><g clip-path="url(#heroClip)"><path fill="#0B0D12" d="M0 0h1600v900H0z"/><path fill="url(#glow)" d="M0 0h1600v900H0z"/><path stroke="#1F2A37" d="M80 0v900M160 0v900M240 0v900M320 0v900M400 0v900M480 0v900M560 0v900M640 0v900M720 0v900M800 0v900M880 0v900M960 0v900m80-900v900m80-900v900m80-900v900m80-900v900m80-900v900m80-900v900m80-900v900M0 80h1600M0 160h1600M0 240h1600M0 320h1600M0 400h1600M0 480h1600M0 560h1600M0 640h1600M0 720h1600M0 800h1600M0 880h1600" opacity=".25"/><g transform="translate(120 220)scale(6.5625)"><g clip-path="url(#clip0_317_188)"><path fill="#FF8000" d="M52 0H12C5.373 0 0 5.373 0 12v40c0 6.627 5.373 12 12 12h40c6.627 0 12-5.373 12-12V12c0-6.627-5.373-12-12-12"/><path fill="#fff" d="M50 20H14a2 2 0 0 0-2 2v24a2 2 0 0 0 2 2h36a2 2 0 0 0 2-2V22a2 2 0 0 0-2-2" opacity=".9"/><path fill="#F597B7" d="M49 22H15a1 1 0 0 0-1 1v14a1 1 0 0 0 1 1h34a1 1 0 0 0 1-1V23a1 1 0 0 0-1-1"/><path fill="#E91E63" d="M32.75 40h-17.5c-.69 0-1.25.672-1.25 1.5s.56 1.5 1.25 1.5h17.5c.69 0 1.25-.672 1.25-1.5s-.56-1.5-1.25-1.5" opacity=".4"/><path fill="#E91E63" d="M27.125 44h-12.25c-.483 0-.875.448-.875 1s.392 1 .875 1h12.25c.483 0 .875-.448.875-1s-.392-1-.875-1" opacity=".3"/><path fill="#fff" d="M32 35c6.627 0 12-5.373 12-12s-5.373-12-12-12-12 5.373-12 12 5.373 12 12 12"/><path stroke="#E81E1E" stroke-width="4" d="M32 15v16m-8-8h16"/></g><defs><clipPath id="clip0_317_188"><path fill="#fff" d="M0 0h64v64H0z"/></clipPath></defs></g><text x="760" y="320" fill="#E6EDF7" font-size="72" font-weight="700" letter-spacing="-.02em">social-preview-doctor</text><text x="760" y="420" fill="#9AA8BD" font-size="30">Debug OG/Twitter previews with real</text><text x="760" y="458" fill="#9AA8BD" font-size="30">crawler headers.</text><g transform="translate(760 540)"><rect width="157" height="40" fill="#111827" stroke="#263142" rx="20"/><text x="79" y="20" fill="#E6EDF7" dominant-baseline="middle" font-size="24" text-anchor="middle">Bot headers</text></g><g transform="translate(931 540)"><rect width="182" height="40" fill="#111827" stroke="#263142" rx="20"/><text x="91" y="20" fill="#E6EDF7" dominant-baseline="middle" font-size="24" text-anchor="middle">Baseline diff</text></g><g transform="translate(1127 540)"><rect width="157" height="40" fill="#111827" stroke="#263142" rx="20"/><text x="79" y="20" fill="#E6EDF7" dominant-baseline="middle" font-size="24" text-anchor="middle">JSON output</text></g></g></svg>