<svg xmlns="http://www.w3.org/2000/svg" width="64" height="64" fill="none" viewBox="0 0 64 64"><g clip-path="url(#a)"><path fill="url(#b)" d="M52 0H12C5.373 0 0 5.373 0 12v40c0 6.627 5.373 12 12 12h40c6.627 0 12-5.373 12-12V12c0-6.627-5.373-12-12-12"/><path fill="#fff" d="M50 18H14a2 2 0 0 0-2 2v24a2 2 0 0 0 2 2h36a2 2 0 0 0 2-2V20a2 2 0 0 0-2-2" opacity=".9"/><path fill="#F597B7" d="M49 20H15a1 1 0 0 0-1 1v14a1 1 0 0 0 1 1h34a1 1 0 0 0 1-1V21a1 1 0 0 0-1-1"/><path fill="#E91E63" d="M32.75 38h-17.5c-.69 0-1.25.672-1.25 1.5s.56 1.5 1.25 1.5h17.5c.69 0 1.25-.672 1.25-1.5s-.56-1.5-1.25-1.5" opacity=".4"/><path fill="#E91E63" d="M27.125 42h-12.25c-.483 0-.875.448-.875 1s.392 1 .875 1h12.25c.483 0 .875-.448.875-1s-.392-1-.875-1" opacity=".3"/><path fill="#4CAF50" d="M46 60c6.627 0 12-5.373 12-12s-5.373-12-12-12-12 5.373-12 12 5.373 12 12 12"/><path stroke="#fff" stroke-linecap="round" stroke-linejoin="round" stroke-width="4" d="m41 49 3.667 4L52 45"/></g><defs><linearGradient id="b" x1="0" x2="4096" y1="0" y2="4096" gradientUnits="userSpaceOnUse"><stop stop-color="#E91E63"/><stop offset="1" stop-color="#C2185B"/></linearGradient><clipPath id="a"><path fill="#fff" d="M0 0h64v64H0z"/></clipPath></defs></svg>