<svg width="64" height="64" viewBox="0 0 64 64" fill="none" xmlns="http://www.w3.org/2000/svg">
<g clip-path="url(#clip0_317_188)">
<path d="M52 0H12C5.37258 0 0 5.37258 0 12V52C0 58.6274 5.37258 64 12 64H52C58.6274 64 64 58.6274 64 52V12C64 5.37258 58.6274 0 52 0Z" fill="#FF8000"/>
<path opacity="0.9" d="M50 20H14C12.8954 20 12 20.8954 12 22V46C12 47.1046 12.8954 48 14 48H50C51.1046 48 52 47.1046 52 46V22C52 20.8954 51.1046 20 50 20Z" fill="white"/>
<path d="M49 22H15C14.4477 22 14 22.4477 14 23V37C14 37.5523 14.4477 38 15 38H49C49.5523 38 50 37.5523 50 37V23C50 22.4477 49.5523 22 49 22Z" fill="#F597B7"/>
<path opacity="0.4" d="M32.75 40H15.25C14.5596 40 14 40.6716 14 41.5C14 42.3284 14.5596 43 15.25 43H32.75C33.4404 43 34 42.3284 34 41.5C34 40.6716 33.4404 40 32.75 40Z" fill="#E91E63"/>
<path opacity="0.3" d="M27.125 44H14.875C14.3918 44 14 44.4477 14 45C14 45.5523 14.3918 46 14.875 46H27.125C27.6082 46 28 45.5523 28 45C28 44.4477 27.6082 44 27.125 44Z" fill="#E91E63"/>
<path d="M32 35C38.6274 35 44 29.6274 44 23C44 16.3726 38.6274 11 32 11C25.3726 11 20 16.3726 20 23C20 29.6274 25.3726 35 32 35Z" fill="white"/>
<path d="M32 15V31M24 23H40" stroke="#E81E1E" stroke-width="4"/>
</g>
<defs>
<clipPath id="clip0_317_188">
<rect width="64" height="64" fill="white"/>
</clipPath>
</defs>
</svg>
