<svg xmlns="http://www.w3.org/2000/svg" width="64" height="64" fill="none" viewBox="0 0 64 64"><g clip-path="url(#a)"><path fill="#FF8000" d="M52 0H12C5.373 0 0 5.373 0 12v40c0 6.627 5.373 12 12 12h40c6.627 0 12-5.373 12-12V12c0-6.627-5.373-12-12-12"/><path fill="#fff" d="M50 20H14a2 2 0 0 0-2 2v24a2 2 0 0 0 2 2h36a2 2 0 0 0 2-2V22a2 2 0 0 0-2-2" opacity=".9"/><path fill="#F597B7" d="M49 22H15a1 1 0 0 0-1 1v14a1 1 0 0 0 1 1h34a1 1 0 0 0 1-1V23a1 1 0 0 0-1-1"/><path fill="#E91E63" d="M32.75 40h-17.5c-.69 0-1.25.672-1.25 1.5s.56 1.5 1.25 1.5h17.5c.69 0 1.25-.672 1.25-1.5s-.56-1.5-1.25-1.5" opacity=".4"/><path fill="#E91E63" d="M27.125 44h-12.25c-.483 0-.875.448-.875 1s.392 1 .875 1h12.25c.483 0 .875-.448.875-1s-.392-1-.875-1" opacity=".3"/><path fill="#fff" d="M32 35c6.627 0 12-5.373 12-12s-5.373-12-12-12-12 5.373-12 12 5.373 12 12 12"/><path stroke="#E81E1E" stroke-width="4" d="M32 15v16m-8-8h16"/></g><defs><clipPath id="a"><path fill="#fff" d="M0 0h64v64H0z"/></clipPath></defs></svg>