<svg xmlns="http://www.w3.org/2000/svg" width="1280" height="640" fill="none" style="color-scheme:light dark" viewBox="0 0 1280 640"><style>text{font-family:&quot;Space Grotesk&quot;,&quot;Sora&quot;,&quot;IBM Plex Sans&quot;,sans-serif}</style><defs><linearGradient id="edge" x1="0" x2="1" y1="0" y2="1"><stop offset="0" stop-color="#0EA5E9" stop-opacity=".18"/><stop offset="1" stop-color="#0EA5E9" stop-opacity="0"/></linearGradient></defs><path fill="#0B0D12" d="M0 0h1280v640H0z"/><path fill="url(#edge)" d="M0 0h1280v640H0z"/><path stroke="#1F2A37" d="M80 0v640M160 0v640M240 0v640M320 0v640M400 0v640M480 0v640M560 0v640M640 0v640M720 0v640M800 0v640M880 0v640M960 0v640m80-640v640m80-640v640m80-640v640M0 80h1280M0 160h1280M0 240h1280M0 320h1280M0 400h1280M0 480h1280M0 560h1280" opacity=".22"/><g transform="translate(140 200)scale(3.75)"><g clip-path="url(#clip0_314_99)"><path fill="url(#paint0_linear_314_99)" d="M52 0H12C5.373 0 0 5.373 0 12v40c0 6.627 5.373 12 12 12h40c6.627 0 12-5.373 12-12V12c0-6.627-5.373-12-12-12"/><path fill="#fff" d="M50 18H14a2 2 0 0 0-2 2v24a2 2 0 0 0 2 2h36a2 2 0 0 0 2-2V20a2 2 0 0 0-2-2" opacity=".9"/><path fill="#F597B7" d="M49 20H15a1 1 0 0 0-1 1v14a1 1 0 0 0 1 1h34a1 1 0 0 0 1-1V21a1 1 0 0 0-1-1"/><path fill="#E91E63" d="M32.75 38h-17.5c-.69 0-1.25.672-1.25 1.5s.56 1.5 1.25 1.5h17.5c.69 0 1.25-.672 1.25-1.5s-.56-1.5-1.25-1.5" opacity=".4"/><path fill="#E91E63" d="M27.125 42h-12.25c-.483 0-.875.448-.875 1s.392 1 .875 1h12.25c.483 0 .875-.448.875-1s-.392-1-.875-1" opacity=".3"/><path fill="#4CAF50" d="M46 60c6.627 0 12-5.373 12-12s-5.373-12-12-12-12 5.373-12 12 5.373 12 12 12"/><path stroke="#fff" stroke-linecap="round" stroke-linejoin="round" stroke-width="4" d="m41 49 3.667 4L52 45"/></g><defs><linearGradient id="paint0_linear_314_99" x1="0" x2="4096" y1="0" y2="4096" gradientUnits="userSpaceOnUse"><stop stop-color="#E91E63"/><stop offset="1" stop-color="#C2185B"/></linearGradient><clipPath id="clip0_314_99"><path fill="#fff" d="M0 0h64v64H0z"/></clipPath></defs></g><text x="520" y="270" fill="#E6EDF7" font-size="60" font-weight="700" letter-spacing="-.02em">social-preview-doctor</text><text x="520" y="355" fill="#9AA8BD" font-size="26">Emulate social bots to validate previews</text><text x="520" y="387" fill="#9AA8BD" font-size="26">before they ship.</text><g transform="translate(520 420)"><rect width="150" height="40" fill="#111827" stroke="#263142" rx="20"/><text x="75" y="20" fill="#E6EDF7" dominant-baseline="middle" font-size="22" text-anchor="middle">Bot headers</text></g><g transform="translate(684 420)"><rect width="173" height="40" fill="#111827" stroke="#263142" rx="20"/><text x="87" y="20" fill="#E6EDF7" dominant-baseline="middle" font-size="22" text-anchor="middle">Baseline diff</text></g><rect width="200" height="12" x="980" y="460" fill="#0EA5E9" fill-opacity=".25" rx="6"/><rect width="160" height="12" x="980" y="488" fill="#0EA5E9" fill-opacity=".35" rx="6"/></svg>