<svg xmlns="http://www.w3.org/2000/svg" width="1280" height="640" fill="none" style="color-scheme:light dark" viewBox="0 0 1280 640"><style>text{font-family:&quot;Space Grotesk&quot;,&quot;Sora&quot;,&quot;IBM Plex Sans&quot;,sans-serif}</style><defs><linearGradient id="edge" x1="0" x2="1" y1="0" y2="1"><stop offset="0" stop-color="#0EA5E9" stop-opacity=".18"/><stop offset="1" stop-color="#0EA5E9" stop-opacity="0"/></linearGradient></defs><path fill="#0B0D12" d="M0 0h1280v640H0z"/><path fill="url(#edge)" d="M0 0h1280v640H0z"/><path stroke="#1F2A37" d="M80 0v640M160 0v640M240 0v640M320 0v640M400 0v640M480 0v640M560 0v640M640 0v640M720 0v640M800 0v640M880 0v640M960 0v640m80-640v640m80-640v640m80-640v640M0 80h1280M0 160h1280M0 240h1280M0 320h1280M0 400h1280M0 480h1280M0 560h1280" opacity=".22"/><g transform="translate(140 200)scale(.4688)"><rect width="448" height="448" x="32" y="32" fill="#111827" rx="96"/><rect width="408" height="408" x="52" y="52" stroke="#263142" stroke-width="2" rx="84"/><rect width="288" height="208" x="112" y="152" stroke="#0EA5E9" stroke-width="28" rx="28"/><path stroke="#0EA5E9" stroke-linecap="round" stroke-width="28" d="M112 196h288"/><circle cx="256" cy="272" r="52" stroke="#0EA5E9" stroke-width="28"/><path stroke="#0EA5E9" stroke-linecap="round" stroke-width="28" d="M256 220v104m-52-52h104"/></g><text x="520" y="270" fill="#E6EDF7" font-size="60" font-weight="700" letter-spacing="-.02em">social-preview-doctor</text><text x="520" y="330" fill="#9AA8BD" font-size="26">Emulate social bots to validate previews before they ship.</text><g transform="translate(520 420)"><rect width="172" height="40" fill="#111827" stroke="#263142" rx="20"/><text x="18" y="26" fill="#E6EDF7" font-size="22">Bot headers</text></g><g transform="translate(706 420)"><rect width="196" height="40" fill="#111827" stroke="#263142" rx="20"/><text x="18" y="26" fill="#E6EDF7" font-size="22">Baseline diff</text></g><rect width="200" height="12" x="980" y="460" fill="#0EA5E9" fill-opacity=".25" rx="6"/><rect width="160" height="12" x="980" y="488" fill="#0EA5E9" fill-opacity=".35" rx="6"/></svg>